STARTFONT 2.1
COMMENT ======================================================================
COMMENT  This is the Goha WP font hacked for Linux consoles by Daniel Yacob for
COMMENT  Goha-16.psf.
COMMENT 
COMMENT  Yitna Firdiywek of GohaTibeb Associates has placed the Goha WP package
COMMENT  and these fonts into the publice domain under the GNU General Public
COMMENT  License vs 2.0 :-  ybf2u@virginia.edu
COMMENT 
COMMENT  Available at:  ftp://ftp.cs.indiana.edu/pub/fidel/fonts/linux/
COMMENT ======================================================================
FONT -Wincalis-ZemenFixed-Medium-R-Normal--16-150-100-100-M-160-Ethiopic-Unicode
SIZE 16 100 100
FONTBOUNDINGBOX 8 16 0 -2
STARTPROPERTIES 5
COPYRIGHT "GNU GPL 2.0"
DEFAULT_CHAR 318
FONT_ASCENT 6
FONT_DESCENT 2
_XMBDFED_INFO "Edited with xmbdfed 4.3."
ENDPROPERTIES
CHARS 388
STARTCHAR 1200
ENCODING 4608
SWIDTH 360 0
DWIDTH 8 0
BBX 8 11 0 -1
BITMAP
C3
C3
C3
C3
C3
C3
C3
C3
66
3C
3C
ENDCHAR
STARTCHAR a1a2
ENCODING 4609
SWIDTH 360 0
DWIDTH 8 0
BBX 8 11 0 -1
BITMAP
CC
CC
CC
CC
CC
CF
CC
CC
78
30
30
ENDCHAR
STARTCHAR a1a3
ENCODING 4610
SWIDTH 360 0
DWIDTH 8 0
BBX 8 11 0 -1
BITMAP
C3
C3
C3
C6
FC
18
30
60
C0
F0
F0
ENDCHAR
STARTCHAR a1a4
ENCODING 4611
SWIDTH 360 0
DWIDTH 8 0
BBX 8 11 0 -1
BITMAP
C3
C3
C3
C6
FC
18
30
60
C0
C0
C0
ENDCHAR
STARTCHAR a1a5
ENCODING 4612
SWIDTH 360 0
DWIDTH 8 0
BBX 8 11 0 -1
BITMAP
C3
C3
C3
C6
FC
18
30
78
C8
F0
F0
ENDCHAR
STARTCHAR a1a6
ENCODING 4613
SWIDTH 360 0
DWIDTH 8 0
BBX 8 11 0 -1
BITMAP
C3
C3
C3
C3
E3
63
63
63
66
3C
3C
ENDCHAR
STARTCHAR a1a7
ENCODING 4614
SWIDTH 360 0
DWIDTH 8 0
BBX 8 11 0 -1
BITMAP
CF
CD
CD
CF
CC
CC
CC
CC
78
30
30
ENDCHAR
STARTCHAR 013e
ENCODING 4615
SWIDTH 360 0
DWIDTH 8 0
BBX 0 0 0 0
BITMAP
ENDCHAR
STARTCHAR a1a9
ENCODING 4616
SWIDTH 360 0
DWIDTH 8 0
BBX 8 11 0 -1
BITMAP
30
18
18
38
64
C6
C6
C6
C6
63
63
ENDCHAR
STARTCHAR a1aa
ENCODING 4617
SWIDTH 360 0
DWIDTH 8 0
BBX 8 11 0 -1
BITMAP
60
30
30
70
C8
8D
8F
8D
8C
C6
C6
ENDCHAR
STARTCHAR a1ab
ENCODING 4618
SWIDTH 360 0
DWIDTH 8 0
BBX 8 11 0 -1
BITMAP
60
30
30
70
C8
8C
8C
8D
8F
C5
C5
ENDCHAR
STARTCHAR a1ac
ENCODING 4619
SWIDTH 360 0
DWIDTH 8 0
BBX 8 11 0 -1
BITMAP
30
18
18
38
64
C6
C6
C6
06
03
03
ENDCHAR
STARTCHAR a1ad
ENCODING 4620
SWIDTH 360 0
DWIDTH 8 0
BBX 8 11 0 -1
BITMAP
60
30
30
78
CC
CC
CC
CF
CD
67
67
ENDCHAR
STARTCHAR a1ae
ENCODING 4621
SWIDTH 360 0
DWIDTH 8 0
BBX 8 11 0 -1
BITMAP
30
18
18
38
64
C6
C6
E6
A6
E3
E3
ENDCHAR
STARTCHAR a1af
ENCODING 4622
SWIDTH 360 0
DWIDTH 8 0
BBX 8 11 0 -1
BITMAP
60
30
30
70
C8
8F
8D
8F
8C
C6
C6
ENDCHAR
STARTCHAR a1b0
ENCODING 4623
SWIDTH 360 0
DWIDTH 8 0
BBX 8 11 0 -1
BITMAP
30
30
30
78
CC
CC
CC
0C
0C
33
33
ENDCHAR
STARTCHAR a1b1
ENCODING 4624
SWIDTH 360 0
DWIDTH 8 0
BBX 8 11 0 -1
BITMAP
18
18
18
18
18
7E
DB
DB
DB
DB
DB
ENDCHAR
STARTCHAR a1b2
ENCODING 4625
SWIDTH 360 0
DWIDTH 8 0
BBX 8 11 0 -1
BITMAP
10
10
10
10
10
FC
D4
D7
D4
D4
D4
ENDCHAR
STARTCHAR a1b3
ENCODING 4626
SWIDTH 360 0
DWIDTH 8 0
BBX 8 11 0 -1
BITMAP
10
10
10
10
10
FC
D4
D4
D4
D7
D7
ENDCHAR
STARTCHAR a1b4
ENCODING 4627
SWIDTH 360 0
DWIDTH 8 0
BBX 8 11 0 -1
BITMAP
18
18
18
18
18
FF
DB
DB
03
03
03
ENDCHAR
STARTCHAR a1b5
ENCODING 4628
SWIDTH 360 0
DWIDTH 8 0
BBX 8 11 0 -1
BITMAP
30
30
30
30
30
FC
B4
B7
B5
B7
B7
ENDCHAR
STARTCHAR a1b6
ENCODING 4629
SWIDTH 360 0
DWIDTH 8 0
BBX 8 11 0 -1
BITMAP
60
78
78
18
18
7E
DB
DB
DB
DB
DB
ENDCHAR
STARTCHAR a1b7
ENCODING 4630
SWIDTH 360 0
DWIDTH 8 0
BBX 8 11 0 -1
BITMAP
18
18
18
18
18
7E
DB
DB
C0
C0
C0
ENDCHAR
STARTCHAR a1b8
ENCODING 4631
SWIDTH 360 0
DWIDTH 8 0
BBX 8 11 0 -1
BITMAP
10
10
10
10
10
FE
D6
D6
06
1B
1B
ENDCHAR
STARTCHAR a1b9
ENCODING 4632
SWIDTH 360 0
DWIDTH 8 0
BBX 7 6 1 4
BITMAP
FE
AA
AA
AA
AE
E0
ENDCHAR
STARTCHAR a1ba
ENCODING 4633
SWIDTH 360 0
DWIDTH 8 0
BBX 8 6 0 4
BITMAP
FE
AA
AA
AB
AE
E0
ENDCHAR
STARTCHAR a1bb
ENCODING 4634
SWIDTH 360 0
DWIDTH 8 0
BBX 8 11 0 -1
BITMAP
FF
AB
AB
AB
AF
E3
06
06
0C
0F
0F
ENDCHAR
STARTCHAR a1bc
ENCODING 4635
SWIDTH 360 0
DWIDTH 8 0
BBX 8 11 0 -1
BITMAP
FF
AB
AB
AB
AF
E3
06
06
0C
0C
0C
ENDCHAR
STARTCHAR a1bd
ENCODING 4636
SWIDTH 360 0
DWIDTH 8 0
BBX 8 11 0 -1
BITMAP
FF
AB
AB
AB
AF
E3
06
07
0D
0F
0F
ENDCHAR
STARTCHAR a1be
ENCODING 4637
SWIDTH 360 0
DWIDTH 8 0
BBX 8 11 0 -1
BITMAP
FF
AB
AB
AB
AF
EC
0C
18
30
30
30
ENDCHAR
STARTCHAR a1bf
ENCODING 4638
SWIDTH 360 0
DWIDTH 8 0
BBX 8 11 0 -1
BITMAP
FF
B5
B5
B5
B7
F0
30
60
60
60
60
ENDCHAR
STARTCHAR a1c0
ENCODING 4639
SWIDTH 360 0
DWIDTH 8 0
BBX 7 11 1 -1
BITMAP
FE
AA
AA
AA
AE
EC
0C
18
18
66
66
ENDCHAR
STARTCHAR a1c1
ENCODING 4640
SWIDTH 360 0
DWIDTH 8 0
BBX 8 7 0 3
BITMAP
DB
DB
DB
DB
DB
DF
F8
ENDCHAR
STARTCHAR a1c2
ENCODING 4641
SWIDTH 360 0
DWIDTH 8 0
BBX 8 7 0 3
BITMAP
D4
D4
D4
D7
D7
DC
F0
ENDCHAR
STARTCHAR a1c3
ENCODING 4642
SWIDTH 360 0
DWIDTH 8 0
BBX 8 11 0 -1
BITMAP
D6
D6
D6
D6
DE
F6
06
0C
0C
0F
0F
ENDCHAR
STARTCHAR a1c4
ENCODING 4643
SWIDTH 360 0
DWIDTH 8 0
BBX 7 11 0 -1
BITMAP
D6
D6
D6
D6
DE
F6
06
0C
0C
0C
0C
ENDCHAR
STARTCHAR a1c5
ENCODING 4644
SWIDTH 360 0
DWIDTH 8 0
BBX 8 11 0 -1
BITMAP
D6
D6
D6
D6
DE
F6
06
0F
0D
0F
0F
ENDCHAR
STARTCHAR a1c6
ENCODING 4645
SWIDTH 360 0
DWIDTH 8 0
BBX 8 11 0 -1
BITMAP
DB
DB
DB
DB
DF
F8
60
60
C0
C0
C0
ENDCHAR
STARTCHAR a1c7
ENCODING 4646
SWIDTH 360 0
DWIDTH 8 0
BBX 8 11 0 -1
BITMAP
DB
DB
DB
DF
F8
18
30
30
60
60
60
ENDCHAR
STARTCHAR a1c8
ENCODING 4647
SWIDTH 360 0
DWIDTH 8 0
BBX 8 11 0 -1
BITMAP
D6
D6
D6
D6
DE
F6
06
0C
0C
33
33
ENDCHAR
STARTCHAR a1c9
ENCODING 4648
SWIDTH 360 0
DWIDTH 8 0
BBX 8 11 0 -1
BITMAP
06
06
06
06
0C
18
30
60
C3
7F
7F
ENDCHAR
STARTCHAR a1ca
ENCODING 4649
SWIDTH 360 0
DWIDTH 8 0
BBX 8 11 0 -1
BITMAP
06
0C
0C
18
30
60
C0
7F
0D
0C
0C
ENDCHAR
STARTCHAR a1cb
ENCODING 4650
SWIDTH 360 0
DWIDTH 8 0
BBX 8 11 0 -1
BITMAP
06
06
06
06
0C
18
30
63
C3
7E
7E
ENDCHAR
STARTCHAR a1cc
ENCODING 4651
SWIDTH 360 0
DWIDTH 8 0
BBX 7 9 0 1
BITMAP
06
0C
0C
18
30
60
C0
CE
F8
ENDCHAR
STARTCHAR a1cd
ENCODING 4652
SWIDTH 360 0
DWIDTH 8 0
BBX 8 11 0 -1
BITMAP
06
06
06
0C
18
30
60
C7
7D
07
07
ENDCHAR
STARTCHAR a1ce
ENCODING 4653
SWIDTH 360 0
DWIDTH 8 0
BBX 8 9 0 1
BITMAP
7F
C3
C3
C0
C0
C0
C0
C3
7F
ENDCHAR
STARTCHAR a1cf
ENCODING 4654
SWIDTH 360 0
DWIDTH 8 0
BBX 8 9 0 1
BITMAP
7F
C5
C5
C7
C0
C0
C0
C3
7F
ENDCHAR
STARTCHAR a1d0
ENCODING 4655
SWIDTH 360 0
DWIDTH 8 0
BBX 8 9 0 1
BITMAP
66
18
18
18
30
60
C0
CE
F9
ENDCHAR
STARTCHAR a1d1
ENCODING 4656
SWIDTH 360 0
DWIDTH 8 0
BBX 8 11 0 -1
BITMAP
18
18
18
3C
66
C3
C3
C3
C3
C3
C3
ENDCHAR
STARTCHAR a1d2
ENCODING 4657
SWIDTH 360 0
DWIDTH 8 0
BBX 8 11 0 -1
BITMAP
30
30
30
30
78
CC
CF
CC
CC
CC
CC
ENDCHAR
STARTCHAR a1d3
ENCODING 4658
SWIDTH 360 0
DWIDTH 8 0
BBX 7 11 0 -1
BITMAP
30
30
30
30
78
CC
CC
CC
CC
CE
CE
ENDCHAR
STARTCHAR a1d4
ENCODING 4659
SWIDTH 360 0
DWIDTH 8 0
BBX 8 11 0 -1
BITMAP
18
18
18
3C
66
C3
C3
C3
03
03
03
ENDCHAR
STARTCHAR a1d5
ENCODING 4660
SWIDTH 360 0
DWIDTH 8 0
BBX 8 11 0 -1
BITMAP
30
30
30
30
78
CC
CC
CF
CD
CF
CF
ENDCHAR
STARTCHAR a1d6
ENCODING 4661
SWIDTH 360 0
DWIDTH 8 0
BBX 8 11 0 -1
BITMAP
60
30
30
18
3C
66
C3
C3
C3
C3
C3
ENDCHAR
STARTCHAR a1d7
ENCODING 4662
SWIDTH 360 0
DWIDTH 8 0
BBX 8 11 0 -1
BITMAP
18
18
18
3C
66
C3
C3
C0
C0
C0
C0
ENDCHAR
STARTCHAR a1d8
ENCODING 4663
SWIDTH 360 0
DWIDTH 8 0
BBX 8 10 0 -1
BITMAP
30
30
FC
CC
CC
CC
CC
0C
33
33
ENDCHAR
STARTCHAR a1d9
ENCODING 4664
SWIDTH 360 0
DWIDTH 8 0
BBX 8 11 0 -1
BITMAP
F8
60
60
3C
66
C3
C3
C3
C3
C3
C3
ENDCHAR
STARTCHAR a1da
ENCODING 4665
SWIDTH 360 0
DWIDTH 8 0
BBX 8 11 0 -1
BITMAP
F8
60
60
60
78
CD
CF
CD
CC
CC
CC
ENDCHAR
STARTCHAR a1db
ENCODING 4666
SWIDTH 360 0
DWIDTH 8 0
BBX 8 11 0 -1
BITMAP
F8
60
60
60
78
CC
CC
CD
CF
CD
CD
ENDCHAR
STARTCHAR a1dc
ENCODING 4667
SWIDTH 360 0
DWIDTH 8 0
BBX 8 11 0 -1
BITMAP
F8
60
60
3C
66
C3
C3
C3
03
03
03
ENDCHAR
STARTCHAR a1dd
ENCODING 4668
SWIDTH 360 0
DWIDTH 8 0
BBX 8 11 0 -1
BITMAP
F8
60
60
60
78
CC
CC
CF
CD
CF
CF
ENDCHAR
STARTCHAR a1de
ENCODING 4669
SWIDTH 360 0
DWIDTH 8 0
BBX 8 11 0 -1
BITMAP
7C
30
30
30
3C
66
C3
63
63
C3
C3
ENDCHAR
STARTCHAR a1df
ENCODING 4670
SWIDTH 360 0
DWIDTH 8 0
BBX 8 11 0 -1
BITMAP
7C
30
30
3C
66
C3
C3
C0
C0
C0
C0
ENDCHAR
STARTCHAR a1e0
ENCODING 4671
SWIDTH 360 0
DWIDTH 8 0
BBX 8 11 0 -1
BITMAP
CC
30
30
FC
CC
CC
CC
CC
0C
33
33
ENDCHAR
STARTCHAR a1e1
ENCODING 4672
SWIDTH 360 0
DWIDTH 8 0
BBX 8 11 0 -1
BITMAP
18
18
18
7E
DB
DB
DB
7E
18
18
18
ENDCHAR
STARTCHAR a1e2
ENCODING 4673
SWIDTH 360 0
DWIDTH 8 0
BBX 8 11 0 -1
BITMAP
18
18
18
7E
DB
DB
7E
18
1E
18
18
ENDCHAR
STARTCHAR a1e3
ENCODING 4674
SWIDTH 360 0
DWIDTH 8 0
BBX 8 11 0 -1
BITMAP
18
18
18
7E
DB
DB
7E
18
18
1E
1E
ENDCHAR
STARTCHAR a1e4
ENCODING 4675
SWIDTH 360 0
DWIDTH 8 0
BBX 8 11 0 -1
BITMAP
18
7E
7E
DB
DB
7E
18
18
30
30
30
ENDCHAR
STARTCHAR a1e5
ENCODING 4676
SWIDTH 360 0
DWIDTH 8 0
BBX 8 11 0 -1
BITMAP
18
7E
7E
DB
DB
7E
18
1E
1A
1E
1E
ENDCHAR
STARTCHAR a1e6
ENCODING 4677
SWIDTH 360 0
DWIDTH 8 0
BBX 8 11 0 -1
BITMAP
60
70
70
18
7E
DB
DB
7E
18
18
18
ENDCHAR
STARTCHAR a1e7
ENCODING 4678
SWIDTH 360 0
DWIDTH 8 0
BBX 8 11 0 -1
BITMAP
3C
66
66
3C
18
7E
DB
DB
7E
18
18
ENDCHAR
STARTCHAR 013e
ENCODING 4679
SWIDTH 360 0
DWIDTH 8 0
BBX 0 0 0 0
BITMAP
ENDCHAR
STARTCHAR a1e1
ENCODING 4680
SWIDTH 360 0
DWIDTH 8 0
BBX 7 11 0 -1
BITMAP
20
F8
F8
A8
A8
F8
26
3A
2A
2E
2E
ENDCHAR
STARTCHAR 013e
ENCODING 4681
SWIDTH 360 0
DWIDTH 8 0
BBX 0 0 0 0
BITMAP
ENDCHAR
STARTCHAR a1e3
ENCODING 4682
SWIDTH 360 0
DWIDTH 8 0
BBX 8 9 0 1
BITMAP
20
22
22
FE
AA
A9
F9
20
20
ENDCHAR
STARTCHAR a1e4
ENCODING 4683
SWIDTH 360 0
DWIDTH 8 0
BBX 5 11 0 -1
BITMAP
20
F8
F8
A8
A8
F8
20
20
D8
18
18
ENDCHAR
STARTCHAR a1e5
ENCODING 4684
SWIDTH 360 0
DWIDTH 8 0
BBX 7 11 0 -1
BITMAP
20
F8
F8
A8
A8
F8
20
3E
32
CE
CE
ENDCHAR
STARTCHAR a1e6
ENCODING 4685
SWIDTH 360 0
DWIDTH 8 0
BBX 8 11 0 -1
BITMAP
20
22
22
FE
A9
A9
F8
20
20
20
20
ENDCHAR
STARTCHAR 013e
ENCODING 4686
SWIDTH 360 0
DWIDTH 8 0
BBX 0 0 0 0
BITMAP
ENDCHAR
STARTCHAR 013e
ENCODING 4687
SWIDTH 360 0
DWIDTH 8 0
BBX 0 0 0 0
BITMAP
ENDCHAR
STARTCHAR 004b
ENCODING 4688
SWIDTH 360 0
DWIDTH 8 0
BBX 8 11 0 2
BITMAP
7E
18
18
7E
DB
DB
7E
18
18
18
18
ENDCHAR
STARTCHAR 004c
ENCODING 4689
SWIDTH 360 0
DWIDTH 8 0
BBX 8 11 0 2
BITMAP
7E
18
18
7E
DB
DB
7E
18
1E
18
18
ENDCHAR
STARTCHAR 004d
ENCODING 4690
SWIDTH 360 0
DWIDTH 8 0
BBX 8 11 0 2
BITMAP
7E
18
18
7E
DB
DB
7E
18
18
18
1E
ENDCHAR
STARTCHAR 004e
ENCODING 4691
SWIDTH 360 0
DWIDTH 8 0
BBX 8 11 0 2
BITMAP
7E
18
18
7E
DB
DB
7E
18
18
30
60
ENDCHAR
STARTCHAR 004f
ENCODING 4692
SWIDTH 360 0
DWIDTH 8 0
BBX 8 11 0 2
BITMAP
7E
18
18
7E
DB
DB
7E
18
1E
12
1E
ENDCHAR
STARTCHAR 0050
ENCODING 4693
SWIDTH 360 0
DWIDTH 8 0
BBX 8 11 0 2
BITMAP
FC
30
18
18
7E
DB
DB
7E
18
18
18
ENDCHAR
STARTCHAR 0051
ENCODING 4694
SWIDTH 360 0
DWIDTH 8 0
BBX 8 11 0 2
BITMAP
FF
24
3C
18
7E
DB
DB
7E
18
18
18
ENDCHAR
STARTCHAR 013e
ENCODING 4695
SWIDTH 360 0
DWIDTH 8 0
BBX 0 0 0 0
BITMAP
ENDCHAR
STARTCHAR 0052
ENCODING 4696
SWIDTH 360 0
DWIDTH 8 0
BBX 8 11 0 2
BITMAP
7E
18
18
7E
DB
DB
7E
1F
1D
1F
18
ENDCHAR
STARTCHAR 013e
ENCODING 4697
SWIDTH 360 0
DWIDTH 8 0
BBX 0 0 0 0
BITMAP
ENDCHAR
STARTCHAR 0053
ENCODING 4698
SWIDTH 360 0
DWIDTH 8 0
BBX 8 11 0 2
BITMAP
7E
19
19
7F
DB
DB
7E
18
18
18
18
ENDCHAR
STARTCHAR 0054
ENCODING 4699
SWIDTH 360 0
DWIDTH 8 0
BBX 8 11 0 2
BITMAP
7E
18
7E
DB
DB
7E
18
18
18
7E
42
ENDCHAR
STARTCHAR 0055
ENCODING 4700
SWIDTH 360 0
DWIDTH 8 0
BBX 8 11 0 2
BITMAP
7E
18
18
7E
DB
DB
7E
18
1E
1A
7E
ENDCHAR
STARTCHAR 0056
ENCODING 4701
SWIDTH 360 0
DWIDTH 8 0
BBX 8 11 0 2
BITMAP
7E
18
18
7E
DB
DB
7F
19
19
18
18
ENDCHAR
STARTCHAR 013e
ENCODING 4702
SWIDTH 360 0
DWIDTH 8 0
BBX 0 0 0 0
BITMAP
ENDCHAR
STARTCHAR 013e
ENCODING 4703
SWIDTH 360 0
DWIDTH 8 0
BBX 0 0 0 0
BITMAP
ENDCHAR
STARTCHAR a1e9
ENCODING 4704
SWIDTH 360 0
DWIDTH 8 0
BBX 8 11 0 -1
BITMAP
3C
66
66
C3
C3
C3
C3
C3
C3
C3
C3
ENDCHAR
STARTCHAR a1ea
ENCODING 4705
SWIDTH 360 0
DWIDTH 8 0
BBX 8 11 0 -1
BITMAP
78
CC
CC
CC
CC
CD
CF
CD
CC
CC
CC
ENDCHAR
STARTCHAR a1eb
ENCODING 4706
SWIDTH 360 0
DWIDTH 8 0
BBX 8 11 0 -1
BITMAP
78
CC
CC
CC
CC
CC
CC
CD
CF
CD
CD
ENDCHAR
STARTCHAR a1ec
ENCODING 4707
SWIDTH 360 0
DWIDTH 8 0
BBX 8 11 0 -1
BITMAP
3C
66
66
C3
C3
C3
C3
03
03
03
03
ENDCHAR
STARTCHAR a1ed
ENCODING 4708
SWIDTH 360 0
DWIDTH 8 0
BBX 8 11 0 -1
BITMAP
78
CC
CC
CC
CC
CC
CC
CF
CD
CF
CF
ENDCHAR
STARTCHAR a1ee
ENCODING 4709
SWIDTH 360 0
DWIDTH 8 0
BBX 8 11 0 -1
BITMAP
1E
33
33
33
33
B3
F3
B3
33
33
33
ENDCHAR
STARTCHAR a1ef
ENCODING 4710
SWIDTH 360 0
DWIDTH 8 0
BBX 8 11 0 -1
BITMAP
3C
66
66
C3
C3
C3
C3
C0
C0
C0
C0
ENDCHAR
STARTCHAR a1f0
ENCODING 4711
SWIDTH 360 0
DWIDTH 8 0
BBX 8 11 0 -1
BITMAP
78
FC
FC
CC
CC
CC
0C
0C
0C
33
33
ENDCHAR
STARTCHAR 005f
ENCODING 4712
SWIDTH 360 0
DWIDTH 8 0
BBX 7 11 0 2
BITMAP
FE
00
3C
46
C6
C6
C6
C6
C6
C6
C6
ENDCHAR
STARTCHAR 0060
ENCODING 4713
SWIDTH 360 0
DWIDTH 8 0
BBX 8 11 0 2
BITMAP
FC
00
38
4C
CC
CC
CF
CF
CC
CC
CC
ENDCHAR
STARTCHAR 0061
ENCODING 4714
SWIDTH 360 0
DWIDTH 8 0
BBX 8 11 0 2
BITMAP
FC
00
38
4C
CC
CC
CC
CC
CC
CF
CF
ENDCHAR
STARTCHAR 0062
ENCODING 4715
SWIDTH 360 0
DWIDTH 8 0
BBX 7 11 0 2
BITMAP
FE
00
3C
46
C6
C6
C6
C6
06
06
06
ENDCHAR
STARTCHAR 0063
ENCODING 4716
SWIDTH 360 0
DWIDTH 8 0
BBX 8 11 0 2
BITMAP
FC
00
38
4C
CC
CC
CC
CC
CF
C9
CF
ENDCHAR
STARTCHAR 0064
ENCODING 4717
SWIDTH 360 0
DWIDTH 8 0
BBX 8 11 0 2
BITMAP
7F
00
1E
23
63
63
E3
E3
63
63
63
ENDCHAR
STARTCHAR 0065
ENCODING 4718
SWIDTH 360 0
DWIDTH 8 0
BBX 7 11 0 2
BITMAP
FE
00
3C
46
C6
C6
C6
C6
C0
C0
C0
ENDCHAR
STARTCHAR 0066
ENCODING 4719
SWIDTH 360 0
DWIDTH 8 0
BBX 8 12 0 1
BITMAP
FE
00
3C
46
C6
C6
C6
06
06
06
1F
11
ENDCHAR
STARTCHAR a1f1
ENCODING 4720
SWIDTH 360 0
DWIDTH 8 0
BBX 8 11 0 -1
BITMAP
18
18
18
FF
99
18
18
18
18
18
18
ENDCHAR
STARTCHAR a1f2
ENCODING 4721
SWIDTH 360 0
DWIDTH 8 0
BBX 8 11 0 -1
BITMAP
18
18
18
FF
99
18
18
1E
18
18
18
ENDCHAR
STARTCHAR a1f3
ENCODING 4722
SWIDTH 360 0
DWIDTH 8 0
BBX 8 11 0 -1
BITMAP
18
18
18
FF
99
18
18
18
18
1E
1E
ENDCHAR
STARTCHAR a1f4
ENCODING 4723
SWIDTH 360 0
DWIDTH 8 0
BBX 8 11 0 -1
BITMAP
18
18
18
FF
99
18
18
30
30
60
60
ENDCHAR
STARTCHAR a1f5
ENCODING 4724
SWIDTH 360 0
DWIDTH 8 0
BBX 8 11 0 -1
BITMAP
18
18
18
FF
99
18
18
1E
1A
1E
1E
ENDCHAR
STARTCHAR a1f6
ENCODING 4725
SWIDTH 360 0
DWIDTH 8 0
BBX 8 11 0 -1
BITMAP
60
60
60
78
18
FF
99
18
18
18
18
ENDCHAR
STARTCHAR a1f7
ENCODING 4726
SWIDTH 360 0
DWIDTH 8 0
BBX 8 11 0 -1
BITMAP
3C
66
66
3C
18
FF
99
18
18
18
18
ENDCHAR
STARTCHAR a1f8
ENCODING 4727
SWIDTH 360 0
DWIDTH 8 0
BBX 8 11 0 -1
BITMAP
18
18
18
FF
99
18
18
18
18
66
66
ENDCHAR
STARTCHAR a1f9
ENCODING 4728
SWIDTH 360 0
DWIDTH 8 0
BBX 8 11 0 -1
BITMAP
FF
99
99
18
18
FF
99
18
18
18
18
ENDCHAR
STARTCHAR a1fa
ENCODING 4729
SWIDTH 360 0
DWIDTH 8 0
BBX 8 11 0 -1
BITMAP
FF
99
99
18
18
FF
99
18
1E
18
18
ENDCHAR
STARTCHAR a1fb
ENCODING 4730
SWIDTH 360 0
DWIDTH 8 0
BBX 8 11 0 -1
BITMAP
FF
99
99
18
18
FF
99
18
18
1E
1E
ENDCHAR
STARTCHAR a1fc
ENCODING 4731
SWIDTH 360 0
DWIDTH 8 0
BBX 8 11 0 -1
BITMAP
FF
99
99
18
FF
99
18
30
30
60
60
ENDCHAR
STARTCHAR a1fd
ENCODING 4732
SWIDTH 360 0
DWIDTH 8 0
BBX 8 11 0 -1
BITMAP
FF
99
99
18
18
FF
99
1E
1A
1E
1E
ENDCHAR
STARTCHAR a1fe
ENCODING 4733
SWIDTH 360 0
DWIDTH 8 0
BBX 8 11 0 -1
BITMAP
FE
B2
B2
30
38
18
FF
99
18
18
18
ENDCHAR
STARTCHAR a2a1
ENCODING 4734
SWIDTH 360 0
DWIDTH 8 0
BBX 8 11 0 -1
BITMAP
63
3C
3C
66
3C
18
FF
99
18
18
18
ENDCHAR
STARTCHAR a2a2
ENCODING 4735
SWIDTH 360 0
DWIDTH 8 0
BBX 8 11 0 -1
BITMAP
FF
99
99
18
FF
99
18
18
18
66
66
ENDCHAR
STARTCHAR a2a3
ENCODING 4736
SWIDTH 360 0
DWIDTH 8 0
BBX 7 11 0 -1
BITMAP
18
F8
F8
30
3E
06
0C
0C
18
18
18
ENDCHAR
STARTCHAR a2a4
ENCODING 4737
SWIDTH 360 0
DWIDTH 8 0
BBX 8 11 0 -1
BITMAP
18
F8
F8
30
3E
06
0C
0F
18
18
18
ENDCHAR
STARTCHAR a2a5
ENCODING 4738
SWIDTH 360 0
DWIDTH 8 0
BBX 7 11 0 -1
BITMAP
18
F8
F8
30
3E
06
0C
0C
18
1E
1E
ENDCHAR
STARTCHAR a2a6
ENCODING 4739
SWIDTH 360 0
DWIDTH 8 0
BBX 7 11 0 -1
BITMAP
30
30
30
FE
C6
06
0C
18
F0
C0
C0
ENDCHAR
STARTCHAR a2a7
ENCODING 4740
SWIDTH 360 0
DWIDTH 8 0
BBX 8 11 0 -1
BITMAP
18
F8
F8
30
3E
06
0C
0F
19
1F
1F
ENDCHAR
STARTCHAR a2a8
ENCODING 4741
SWIDTH 360 0
DWIDTH 8 0
BBX 8 11 0 -1
BITMAP
0C
FC
FC
D8
DF
03
06
06
0C
0C
0C
ENDCHAR
STARTCHAR a2a9
ENCODING 4742
SWIDTH 360 0
DWIDTH 8 0
BBX 8 11 0 -1
BITMAP
1F
35
35
F7
30
30
1E
06
06
0C
0C
ENDCHAR
STARTCHAR 013e
ENCODING 4743
SWIDTH 360 0
DWIDTH 8 0
BBX 0 0 0 0
BITMAP
ENDCHAR
STARTCHAR a2a3
ENCODING 4744
SWIDTH 360 0
DWIDTH 8 0
BBX 8 11 0 -1
BITMAP
60
E0
E0
40
78
1F
35
37
60
60
60
ENDCHAR
STARTCHAR 013e
ENCODING 4745
SWIDTH 360 0
DWIDTH 8 0
BBX 0 0 0 0
BITMAP
ENDCHAR
STARTCHAR a2a5
ENCODING 4746
SWIDTH 360 0
DWIDTH 8 0
BBX 8 11 0 -1
BITMAP
60
E0
E0
40
78
1E
33
30
60
60
60
ENDCHAR
STARTCHAR a2a6
ENCODING 4747
SWIDTH 360 0
DWIDTH 8 0
BBX 8 11 0 -1
BITMAP
18
F8
F8
30
3E
06
0C
0C
33
03
03
ENDCHAR
STARTCHAR a2a7
ENCODING 4748
SWIDTH 360 0
DWIDTH 8 0
BBX 8 11 0 -1
BITMAP
18
F8
F8
30
3C
0C
1B
19
1F
60
60
ENDCHAR
STARTCHAR a2a8
ENCODING 4749
SWIDTH 360 0
DWIDTH 8 0
BBX 8 11 0 -1
BITMAP
60
E0
E0
40
78
1A
34
34
67
60
60
ENDCHAR
STARTCHAR 013e
ENCODING 4750
SWIDTH 360 0
DWIDTH 8 0
BBX 0 0 0 0
BITMAP
ENDCHAR
STARTCHAR 013e
ENCODING 4751
SWIDTH 360 0
DWIDTH 8 0
BBX 0 0 0 0
BITMAP
ENDCHAR
STARTCHAR a2ab
ENCODING 4752
SWIDTH 360 0
DWIDTH 8 0
BBX 5 11 2 -1
BITMAP
60
60
60
C0
F8
18
30
30
60
60
60
ENDCHAR
STARTCHAR a2ac
ENCODING 4753
SWIDTH 360 0
DWIDTH 8 0
BBX 6 11 2 -1
BITMAP
60
60
60
C0
F8
18
30
3C
60
60
60
ENDCHAR
STARTCHAR a2ad
ENCODING 4754
SWIDTH 360 0
DWIDTH 8 0
BBX 5 11 2 -1
BITMAP
60
60
60
C0
F8
18
30
30
60
78
78
ENDCHAR
STARTCHAR a2ae
ENCODING 4755
SWIDTH 360 0
DWIDTH 8 0
BBX 8 11 0 -1
BITMAP
01
7F
7F
C3
C0
C0
7C
0C
0C
0C
0C
ENDCHAR
STARTCHAR a2af
ENCODING 4756
SWIDTH 360 0
DWIDTH 8 0
BBX 5 11 2 -1
BITMAP
60
60
60
C0
F8
18
30
38
68
78
78
ENDCHAR
STARTCHAR a2b0
ENCODING 4757
SWIDTH 360 0
DWIDTH 8 0
BBX 7 11 1 -1
BITMAP
C0
78
78
D8
30
3E
06
0C
0C
18
18
ENDCHAR
STARTCHAR a2b1
ENCODING 4758
SWIDTH 360 0
DWIDTH 8 0
BBX 7 11 1 -1
BITMAP
7E
CA
CA
CE
C0
C0
7C
0C
0C
18
18
ENDCHAR
STARTCHAR a2b2
ENCODING 4759
SWIDTH 360 0
DWIDTH 8 0
BBX 8 11 0 -1
BITMAP
01
7F
7F
C3
C0
C0
7C
0C
0C
33
33
ENDCHAR
STARTCHAR a2b3
ENCODING 4760
SWIDTH 360 0
DWIDTH 8 0
BBX 8 11 0 -1
BITMAP
FF
99
99
30
3E
06
0C
0C
18
18
18
ENDCHAR
STARTCHAR a2b4
ENCODING 4761
SWIDTH 360 0
DWIDTH 8 0
BBX 8 11 0 -1
BITMAP
FF
99
99
30
3E
06
0C
0F
18
18
18
ENDCHAR
STARTCHAR a2b5
ENCODING 4762
SWIDTH 360 0
DWIDTH 8 0
BBX 8 11 0 -1
BITMAP
FF
99
99
30
3E
06
0C
0C
18
1E
1E
ENDCHAR
STARTCHAR a2b6
ENCODING 4763
SWIDTH 360 0
DWIDTH 8 0
BBX 8 11 0 -1
BITMAP
FF
99
99
18
7F
C3
C0
7C
0C
0C
0C
ENDCHAR
STARTCHAR a2b7
ENCODING 4764
SWIDTH 360 0
DWIDTH 8 0
BBX 8 11 0 -1
BITMAP
FF
99
99
30
3E
06
0C
0E
1A
1E
1E
ENDCHAR
STARTCHAR a2b8
ENCODING 4765
SWIDTH 360 0
DWIDTH 8 0
BBX 8 11 0 -1
BITMAP
FF
3C
3C
6C
18
1F
03
06
06
0C
0C
ENDCHAR
STARTCHAR a2b9
ENCODING 4766
SWIDTH 360 0
DWIDTH 8 0
BBX 8 11 0 -1
BITMAP
FF
99
99
7E
CA
CE
C0
7C
0C
0C
0C
ENDCHAR
STARTCHAR a2ba
ENCODING 4767
SWIDTH 360 0
DWIDTH 8 0
BBX 8 11 0 -1
BITMAP
33
0C
0C
0C
7F
C3
C0
7C
0C
33
33
ENDCHAR
STARTCHAR a2bb
ENCODING 4768
SWIDTH 360 0
DWIDTH 8 0
BBX 7 11 0 -1
BITMAP
30
30
30
0C
1C
36
66
66
C6
C6
C6
ENDCHAR
STARTCHAR a2bc
ENCODING 4769
SWIDTH 360 0
DWIDTH 8 0
BBX 8 11 0 -1
BITMAP
60
60
60
60
18
3D
6F
6D
CC
CC
CC
ENDCHAR
STARTCHAR a2bd
ENCODING 4770
SWIDTH 360 0
DWIDTH 8 0
BBX 8 11 0 -1
BITMAP
60
60
60
60
18
3C
6C
6D
CF
CD
CD
ENDCHAR
STARTCHAR a2be
ENCODING 4771
SWIDTH 360 0
DWIDTH 8 0
BBX 7 11 0 -1
BITMAP
30
30
30
0C
1C
36
66
66
C6
C6
C6
ENDCHAR
STARTCHAR a2bf
ENCODING 4772
SWIDTH 360 0
DWIDTH 8 0
BBX 8 11 0 -1
BITMAP
60
60
60
60
18
3C
6C
6F
CD
CF
CF
ENDCHAR
STARTCHAR a2c0
ENCODING 4773
SWIDTH 360 0
DWIDTH 8 0
BBX 7 11 0 -1
BITMAP
C0
C0
C0
30
30
0C
1C
36
66
66
66
ENDCHAR
STARTCHAR a2c1
ENCODING 4774
SWIDTH 360 0
DWIDTH 8 0
BBX 7 11 0 -1
BITMAP
30
30
30
0C
1C
36
66
66
C0
C0
C0
ENDCHAR
STARTCHAR a2c2
ENCODING 4775
SWIDTH 360 0
DWIDTH 8 0
BBX 7 11 0 -1
BITMAP
CC
30
30
0C
1C
36
66
66
C6
C6
C6
ENDCHAR
STARTCHAR a2c3
ENCODING 4776
SWIDTH 360 0
DWIDTH 8 0
BBX 8 11 0 -1
BITMAP
C0
C0
C0
3C
66
C3
C3
C3
C3
C3
C3
ENDCHAR
STARTCHAR a2c4
ENCODING 4777
SWIDTH 360 0
DWIDTH 8 0
BBX 8 11 0 -1
BITMAP
C0
C0
C0
C0
78
CD
CF
CD
CC
CC
CC
ENDCHAR
STARTCHAR a2c5
ENCODING 4778
SWIDTH 360 0
DWIDTH 8 0
BBX 8 11 0 -1
BITMAP
C0
C0
C0
C0
78
CC
CC
CD
CF
CD
CD
ENDCHAR
STARTCHAR a2c6
ENCODING 4779
SWIDTH 360 0
DWIDTH 8 0
BBX 8 11 0 -1
BITMAP
C0
C0
C0
3C
66
C3
C3
C3
03
03
03
ENDCHAR
STARTCHAR a2c7
ENCODING 4780
SWIDTH 360 0
DWIDTH 8 0
BBX 8 11 0 -1
BITMAP
C0
C0
C0
C0
78
CC
CC
CF
CD
CF
CF
ENDCHAR
STARTCHAR a2c8
ENCODING 4781
SWIDTH 360 0
DWIDTH 8 0
BBX 8 11 0 -1
BITMAP
60
60
60
60
3C
66
C3
63
63
C3
C3
ENDCHAR
STARTCHAR a2c9
ENCODING 4782
SWIDTH 360 0
DWIDTH 8 0
BBX 8 11 0 -1
BITMAP
60
60
60
3C
66
C3
C3
C0
C0
C0
C0
ENDCHAR
STARTCHAR 013e
ENCODING 4783
SWIDTH 360 0
DWIDTH 8 0
BBX 0 0 0 0
BITMAP
ENDCHAR
STARTCHAR a2ab
ENCODING 4784
SWIDTH 360 0
DWIDTH 8 0
BBX 8 11 0 -1
BITMAP
C0
C0
C0
78
CC
CF
CD
CF
CC
CC
CC
ENDCHAR
STARTCHAR 013e
ENCODING 4785
SWIDTH 360 0
DWIDTH 8 0
BBX 0 0 0 0
BITMAP
ENDCHAR
STARTCHAR a2ad
ENCODING 4786
SWIDTH 360 0
DWIDTH 8 0
BBX 8 11 0 -1
BITMAP
C0
C0
C0
70
DA
DF
D9
D8
D8
D8
D8
ENDCHAR
STARTCHAR a2ae
ENCODING 4787
SWIDTH 360 0
DWIDTH 8 0
BBX 8 11 0 -1
BITMAP
C0
C0
C0
30
78
CC
CC
CC
13
13
13
ENDCHAR
STARTCHAR a2af
ENCODING 4788
SWIDTH 360 0
DWIDTH 8 0
BBX 8 11 0 -1
BITMAP
C0
C0
C0
C0
78
CC
CF
CD
0F
30
30
ENDCHAR
STARTCHAR a2b0
ENCODING 4789
SWIDTH 360 0
DWIDTH 8 0
BBX 8 11 0 -1
BITMAP
D8
DF
DF
73
CC
CC
CC
CC
CC
CC
CC
ENDCHAR
STARTCHAR 013e
ENCODING 4790
SWIDTH 360 0
DWIDTH 8 0
BBX 0 0 0 0
BITMAP
ENDCHAR
STARTCHAR 013e
ENCODING 4791
SWIDTH 360 0
DWIDTH 8 0
BBX 0 0 0 0
BITMAP
ENDCHAR
STARTCHAR a2cb
ENCODING 4792
SWIDTH 360 0
DWIDTH 8 0
BBX 8 11 0 -1
BITMAP
F8
60
60
3C
66
C3
C3
C3
C3
C3
C3
ENDCHAR
STARTCHAR a2cc
ENCODING 4793
SWIDTH 360 0
DWIDTH 8 0
BBX 8 11 0 -1
BITMAP
F8
60
60
60
78
CC
CC
CD
CF
CD
CD
ENDCHAR
STARTCHAR a2cd
ENCODING 4794
SWIDTH 360 0
DWIDTH 8 0
BBX 8 11 0 -1
BITMAP
F8
60
60
60
78
CC
CC
CD
CF
CD
CD
ENDCHAR
STARTCHAR a2ce
ENCODING 4795
SWIDTH 360 0
DWIDTH 8 0
BBX 8 11 0 -1
BITMAP
F8
60
60
3C
66
C3
C3
C3
03
03
03
ENDCHAR
STARTCHAR a2cf
ENCODING 4796
SWIDTH 360 0
DWIDTH 8 0
BBX 8 11 0 -1
BITMAP
F8
60
60
60
78
CC
CC
CF
CD
CF
CF
ENDCHAR
STARTCHAR a2d0
ENCODING 4797
SWIDTH 360 0
DWIDTH 8 0
BBX 8 11 0 -1
BITMAP
7C
30
30
30
3C
66
C3
63
63
C3
C3
ENDCHAR
STARTCHAR a2d1
ENCODING 4798
SWIDTH 360 0
DWIDTH 8 0
BBX 8 11 0 -1
BITMAP
7C
30
30
3C
66
C3
C3
C0
C0
C0
C0
ENDCHAR
STARTCHAR 013e
ENCODING 4799
SWIDTH 360 0
DWIDTH 8 0
BBX 0 0 0 0
BITMAP
ENDCHAR
STARTCHAR 00ae
ENCODING 4800
SWIDTH 360 0
DWIDTH 8 0
BBX 8 12 0 2
BITMAP
10
30
E0
9F
65
67
66
66
66
66
66
66
ENDCHAR
STARTCHAR 00af
ENCODING 4802
SWIDTH 360 0
DWIDTH 8 0
BBX 8 12 0 2
BITMAP
10
30
E0
98
64
65
65
67
65
65
64
64
ENDCHAR
STARTCHAR 00b0
ENCODING 4803
SWIDTH 360 0
DWIDTH 8 0
BBX 8 12 0 2
BITMAP
10
30
E0
9C
66
66
66
66
06
06
1F
11
ENDCHAR
STARTCHAR 00b1
ENCODING 4804
SWIDTH 360 0
DWIDTH 8 0
BBX 8 12 0 2
BITMAP
10
30
E0
9C
7C
66
66
66
0F
09
3F
60
ENDCHAR
STARTCHAR 00b2
ENCODING 4805
SWIDTH 360 0
DWIDTH 8 0
BBX 8 12 0 2
BITMAP
10
30
E2
9A
66
65
65
64
64
64
64
64
ENDCHAR
STARTCHAR 013e
ENCODING 4806
SWIDTH 360 0
DWIDTH 8 0
BBX 0 0 0 0
BITMAP
ENDCHAR
STARTCHAR 013e
ENCODING 4807
SWIDTH 360 0
DWIDTH 8 0
BBX 0 0 0 0
BITMAP
ENDCHAR
STARTCHAR a2d3
ENCODING 4808
SWIDTH 360 0
DWIDTH 8 0
BBX 7 6 1 1
BITMAP
7C
D6
D6
D6
D6
7C
ENDCHAR
STARTCHAR a2d4
ENCODING 4809
SWIDTH 360 0
DWIDTH 8 0
BBX 7 6 0 1
BITMAP
F8
A8
A8
A8
A8
FE
ENDCHAR
STARTCHAR a2d5
ENCODING 4810
SWIDTH 360 0
DWIDTH 8 0
BBX 8 11 0 -1
BITMAP
7E
DB
DB
DB
7E
18
18
18
1E
18
18
ENDCHAR
STARTCHAR a2d6
ENCODING 4811
SWIDTH 360 0
DWIDTH 8 0
BBX 8 11 0 -1
BITMAP
7E
DB
DB
DB
7E
18
18
18
18
18
18
ENDCHAR
STARTCHAR a2d7
ENCODING 4812
SWIDTH 360 0
DWIDTH 8 0
BBX 8 12 0 -2
BITMAP
7E
DB
DB
DB
7E
18
18
18
1E
1A
1A
1E
ENDCHAR
STARTCHAR a2d8
ENCODING 4813
SWIDTH 360 0
DWIDTH 8 0
BBX 7 6 1 1
BITMAP
F8
A8
A8
AE
A8
F8
ENDCHAR
STARTCHAR a2d9
ENCODING 4814
SWIDTH 360 0
DWIDTH 8 0
BBX 8 11 0 -1
BITMAP
7E
DB
DB
DB
7E
18
30
60
C0
C0
C0
ENDCHAR
STARTCHAR 013e
ENCODING 4815
SWIDTH 360 0
DWIDTH 8 0
BBX 0 0 0 0
BITMAP
ENDCHAR
STARTCHAR a2db
ENCODING 4816
SWIDTH 360 0
DWIDTH 8 0
BBX 8 11 0 -1
BITMAP
7E
C3
C3
C3
C3
C3
C3
C3
C3
7E
7E
ENDCHAR
STARTCHAR a2dc
ENCODING 4817
SWIDTH 360 0
DWIDTH 8 0
BBX 8 11 0 -1
BITMAP
78
CC
CC
CC
CC
CF
CC
CC
CC
78
78
ENDCHAR
STARTCHAR a2dd
ENCODING 4818
SWIDTH 360 0
DWIDTH 8 0
BBX 8 11 0 -1
BITMAP
7E
C3
C3
C3
C3
7E
06
0C
18
1F
1F
ENDCHAR
STARTCHAR a2de
ENCODING 4819
SWIDTH 360 0
DWIDTH 8 0
BBX 8 11 0 -1
BITMAP
7E
C3
C3
C3
C3
7F
03
06
06
06
06
ENDCHAR
STARTCHAR a2df
ENCODING 4820
SWIDTH 360 0
DWIDTH 8 0
BBX 8 11 0 -1
BITMAP
7E
C3
C3
C3
C3
7E
06
0F
19
1F
1F
ENDCHAR
STARTCHAR a2e0
ENCODING 4821
SWIDTH 360 0
DWIDTH 8 0
BBX 8 11 0 -1
BITMAP
18
18
18
7E
C3
C3
C3
C3
C3
7E
7E
ENDCHAR
STARTCHAR a2e1
ENCODING 4822
SWIDTH 360 0
DWIDTH 8 0
BBX 8 11 0 -1
BITMAP
7E
C3
C3
C3
C3
7E
38
60
C0
C0
C0
ENDCHAR
STARTCHAR 013e
ENCODING 4823
SWIDTH 360 0
DWIDTH 8 0
BBX 0 0 0 0
BITMAP
ENDCHAR
STARTCHAR a2e3
ENCODING 4824
SWIDTH 360 0
DWIDTH 8 0
BBX 7 10 0 -1
BITMAP
C6
C6
C6
C6
FE
C6
C6
C6
C6
C6
ENDCHAR
STARTCHAR a2e4
ENCODING 4825
SWIDTH 360 0
DWIDTH 8 0
BBX 8 10 0 -1
BITMAP
CC
CC
CC
CC
FF
CC
CC
CC
CC
CC
ENDCHAR
STARTCHAR a2e5
ENCODING 4826
SWIDTH 360 0
DWIDTH 8 0
BBX 8 10 0 -1
BITMAP
CC
CC
CC
CC
FC
CC
CC
CC
CF
CF
ENDCHAR
STARTCHAR a2e6
ENCODING 4827
SWIDTH 360 0
DWIDTH 8 0
BBX 7 10 0 -1
BITMAP
C6
C6
C6
C6
FE
C6
C6
06
06
06
ENDCHAR
STARTCHAR a2e7
ENCODING 4828
SWIDTH 360 0
DWIDTH 8 0
BBX 7 10 1 -1
BITMAP
CC
CC
CC
CC
FC
CC
CE
CC
CE
CE
ENDCHAR
STARTCHAR a2e8
ENCODING 4829
SWIDTH 360 0
DWIDTH 8 0
BBX 8 10 0 -1
BITMAP
33
33
F3
33
3F
33
33
33
33
33
ENDCHAR
STARTCHAR a2e9
ENCODING 4830
SWIDTH 360 0
DWIDTH 8 0
BBX 7 10 0 -1
BITMAP
C6
C6
C6
C6
FE
C6
C6
C0
C0
C0
ENDCHAR
STARTCHAR a2ea
ENCODING 4831
SWIDTH 360 0
DWIDTH 8 0
BBX 8 11 0 -1
BITMAP
CC
CC
CC
CC
FC
CC
CC
0C
0C
33
33
ENDCHAR
STARTCHAR a2eb
ENCODING 4832
SWIDTH 360 0
DWIDTH 8 0
BBX 8 11 0 -1
BITMAP
C3
66
66
66
66
7E
66
66
66
66
66
ENDCHAR
STARTCHAR a2ec
ENCODING 4833
SWIDTH 360 0
DWIDTH 8 0
BBX 8 11 0 -1
BITMAP
C3
66
66
66
66
7F
66
66
66
66
66
ENDCHAR
STARTCHAR a2ed
ENCODING 4834
SWIDTH 360 0
DWIDTH 8 0
BBX 8 11 0 -1
BITMAP
C3
66
66
66
66
7E
66
66
66
67
67
ENDCHAR
STARTCHAR a2ee
ENCODING 4835
SWIDTH 360 0
DWIDTH 8 0
BBX 8 11 0 -1
BITMAP
C3
66
66
66
66
7E
66
66
06
06
06
ENDCHAR
STARTCHAR a2ef
ENCODING 4836
SWIDTH 360 0
DWIDTH 8 0
BBX 8 11 0 -1
BITMAP
81
66
66
66
66
7E
66
67
65
67
67
ENDCHAR
STARTCHAR a2f0
ENCODING 4837
SWIDTH 360 0
DWIDTH 8 0
BBX 8 11 0 -1
BITMAP
D9
66
66
E6
66
7E
66
66
66
66
66
ENDCHAR
STARTCHAR a2f1
ENCODING 4838
SWIDTH 360 0
DWIDTH 8 0
BBX 8 11 0 -1
BITMAP
81
66
66
66
66
7E
66
66
60
60
60
ENDCHAR
STARTCHAR a2f2
ENCODING 4839
SWIDTH 360 0
DWIDTH 8 0
BBX 8 11 0 -1
BITMAP
C6
6C
6C
6C
6C
7C
6C
6C
0C
33
33
ENDCHAR
STARTCHAR a2f3
ENCODING 4840
SWIDTH 360 0
DWIDTH 8 0
BBX 8 11 0 -1
BITMAP
7E
C3
C3
C3
FE
60
18
18
18
18
18
ENDCHAR
STARTCHAR a2f4
ENCODING 4841
SWIDTH 360 0
DWIDTH 8 0
BBX 8 11 0 -1
BITMAP
7E
C3
C3
C3
FE
60
1E
1A
18
18
18
ENDCHAR
STARTCHAR a2f5
ENCODING 4842
SWIDTH 360 0
DWIDTH 8 0
BBX 8 11 0 -1
BITMAP
7E
C3
C3
C3
FE
60
36
3F
1B
18
18
ENDCHAR
STARTCHAR a2f6
ENCODING 4843
SWIDTH 360 0
DWIDTH 8 0
BBX 8 11 0 -1
BITMAP
7E
C3
C3
C3
FE
60
30
18
70
60
60
ENDCHAR
STARTCHAR a2f7
ENCODING 4844
SWIDTH 360 0
DWIDTH 8 0
BBX 8 11 0 -1
BITMAP
7E
C3
C3
C3
FE
60
3F
35
37
30
30
ENDCHAR
STARTCHAR a2f8
ENCODING 4845
SWIDTH 360 0
DWIDTH 8 0
BBX 8 11 0 -1
BITMAP
7E
C3
C3
C3
FE
60
30
1B
7F
60
60
ENDCHAR
STARTCHAR a2f9
ENCODING 4846
SWIDTH 360 0
DWIDTH 8 0
BBX 8 11 0 -1
BITMAP
78
CC
CC
CF
F9
60
30
18
18
18
18
ENDCHAR
STARTCHAR 013e
ENCODING 4847
SWIDTH 360 0
DWIDTH 8 0
BBX 0 0 0 0
BITMAP
ENDCHAR
STARTCHAR a2fb
ENCODING 4848
SWIDTH 360 0
DWIDTH 8 0
BBX 8 11 0 -1
BITMAP
7E
C3
C3
C3
FE
60
18
18
7E
66
66
ENDCHAR
STARTCHAR a2fc
ENCODING 4849
SWIDTH 360 0
DWIDTH 8 0
BBX 8 11 0 -1
BITMAP
7E
C3
C3
C3
FE
60
DE
1A
18
18
18
ENDCHAR
STARTCHAR a2fd
ENCODING 4850
SWIDTH 360 0
DWIDTH 8 0
BBX 8 11 0 -1
BITMAP
7E
C3
C3
C3
FE
60
D8
18
18
1E
1E
ENDCHAR
STARTCHAR a2fe
ENCODING 4851
SWIDTH 360 0
DWIDTH 8 0
BBX 8 11 0 -1
BITMAP
7E
C3
C3
C3
FE
60
DC
CC
0C
0C
0C
ENDCHAR
STARTCHAR a3a1
ENCODING 4852
SWIDTH 360 0
DWIDTH 8 0
BBX 8 11 0 -1
BITMAP
7E
C3
C3
C3
FE
60
3F
37
35
37
37
ENDCHAR
STARTCHAR a3a2
ENCODING 4853
SWIDTH 360 0
DWIDTH 8 0
BBX 8 11 0 -1
BITMAP
7C
C7
C7
C6
FE
30
30
30
7E
66
66
ENDCHAR
STARTCHAR a3a3
ENCODING 4854
SWIDTH 360 0
DWIDTH 8 0
BBX 8 11 0 -1
BITMAP
7F
63
63
63
7F
38
7F
C3
C3
C0
C0
ENDCHAR
STARTCHAR a3a4
ENCODING 4855
SWIDTH 360 0
DWIDTH 8 0
BBX 8 11 0 -1
BITMAP
7C
86
86
FC
40
30
30
FC
C4
1B
1B
ENDCHAR
STARTCHAR a2fb
ENCODING 4856
SWIDTH 360 0
DWIDTH 8 0
BBX 8 11 0 -1
BITMAP
7E
C3
FF
C3
FE
60
18
18
7E
66
66
ENDCHAR
STARTCHAR a2fc
ENCODING 4857
SWIDTH 360 0
DWIDTH 8 0
BBX 8 11 0 -1
BITMAP
7E
C3
FF
C3
FE
60
DE
1A
18
18
18
ENDCHAR
STARTCHAR a2fd
ENCODING 4858
SWIDTH 360 0
DWIDTH 8 0
BBX 8 11 0 -1
BITMAP
7E
C3
FF
C3
FE
60
D8
18
18
1E
1E
ENDCHAR
STARTCHAR a2fe
ENCODING 4859
SWIDTH 360 0
DWIDTH 8 0
BBX 8 11 0 -1
BITMAP
7E
C3
FF
C3
FE
60
DC
CC
0C
0C
0C
ENDCHAR
STARTCHAR a3a1
ENCODING 4860
SWIDTH 360 0
DWIDTH 8 0
BBX 8 11 0 -1
BITMAP
7E
C3
FF
C3
FE
60
3F
37
35
37
37
ENDCHAR
STARTCHAR a3a2
ENCODING 4861
SWIDTH 360 0
DWIDTH 8 0
BBX 8 11 0 -1
BITMAP
7C
C7
FF
C6
FE
30
30
30
7E
66
66
ENDCHAR
STARTCHAR a3a3
ENCODING 4862
SWIDTH 360 0
DWIDTH 8 0
BBX 8 11 0 -1
BITMAP
7F
63
7F
63
7F
38
7F
C3
C3
C0
C0
ENDCHAR
STARTCHAR a3a4
ENCODING 4863
SWIDTH 360 0
DWIDTH 8 0
BBX 8 12 0 -1
BITMAP
7E
C3
FF
C3
FE
60
18
18
FE
C6
1B
1B
ENDCHAR
STARTCHAR a3a5
ENCODING 4864
SWIDTH 360 0
DWIDTH 8 0
BBX 7 11 0 -1
BITMAP
66
18
18
FE
C6
FE
70
18
7E
66
66
ENDCHAR
STARTCHAR a3a6
ENCODING 4865
SWIDTH 360 0
DWIDTH 8 0
BBX 8 11 0 -1
BITMAP
66
18
18
7E
C3
FE
60
FE
1A
18
18
ENDCHAR
STARTCHAR a3a7
ENCODING 4866
SWIDTH 360 0
DWIDTH 8 0
BBX 8 11 0 -1
BITMAP
66
18
18
FF
C3
FF
60
F8
1A
1E
1E
ENDCHAR
STARTCHAR a3a8
ENCODING 4867
SWIDTH 360 0
DWIDTH 8 0
BBX 8 11 0 -1
BITMAP
66
18
18
7F
63
7F
60
B0
18
20
20
ENDCHAR
STARTCHAR a3a9
ENCODING 4868
SWIDTH 360 0
DWIDTH 8 0
BBX 8 12 0 -2
BITMAP
66
18
18
FF
C3
FF
60
3F
35
37
37
F0
ENDCHAR
STARTCHAR a3aa
ENCODING 4869
SWIDTH 360 0
DWIDTH 8 0
BBX 8 12 0 -2
BITMAP
CC
30
30
FC
C4
C7
FD
60
1B
7F
7F
E0
ENDCHAR
STARTCHAR a3ab
ENCODING 4870
SWIDTH 360 0
DWIDTH 8 0
BBX 8 11 0 -1
BITMAP
33
0C
0C
7F
63
7F
38
CC
06
06
06
ENDCHAR
STARTCHAR 00f0
ENCODING 4871
SWIDTH 360 0
DWIDTH 8 0
BBX 8 12 0 2
BITMAP
FC
30
78
CC
CC
F8
60
30
7C
C6
1F
11
ENDCHAR
STARTCHAR a3ad
ENCODING 4872
SWIDTH 360 0
DWIDTH 8 0
BBX 8 11 0 -1
BITMAP
FF
E3
E3
03
06
06
06
0C
0C
0C
0C
ENDCHAR
STARTCHAR a3ae
ENCODING 4873
SWIDTH 360 0
DWIDTH 8 0
BBX 8 11 0 -1
BITMAP
FE
C6
C6
06
0C
0C
0F
18
18
18
18
ENDCHAR
STARTCHAR a3af
ENCODING 4874
SWIDTH 360 0
DWIDTH 8 0
BBX 7 11 1 -1
BITMAP
FE
C6
C6
06
0C
0C
0C
18
18
1E
1E
ENDCHAR
STARTCHAR a3b0
ENCODING 4875
SWIDTH 360 0
DWIDTH 8 0
BBX 7 10 1 -1
BITMAP
FC
FC
C6
06
06
0C
18
70
60
60
ENDCHAR
STARTCHAR a3b1
ENCODING 4876
SWIDTH 360 0
DWIDTH 8 0
BBX 7 11 1 -1
BITMAP
FE
C6
C6
06
0C
0C
0C
1E
1A
1E
1E
ENDCHAR
STARTCHAR a3b2
ENCODING 4877
SWIDTH 360 0
DWIDTH 8 0
BBX 7 11 1 -1
BITMAP
FE
A6
A6
E6
0C
0C
0C
1C
18
18
18
ENDCHAR
STARTCHAR a3b3
ENCODING 4878
SWIDTH 360 0
DWIDTH 8 0
BBX 8 11 0 -1
BITMAP
18
18
18
FF
E3
03
06
06
0C
0C
0C
ENDCHAR
STARTCHAR 013e
ENCODING 4879
SWIDTH 360 0
DWIDTH 8 0
BBX 0 0 0 0
BITMAP
ENDCHAR
STARTCHAR a2d3
ENCODING 4880
SWIDTH 360 0
DWIDTH 8 0
BBX 8 11 0 -1
BITMAP
FC
CC
CC
0C
18
1F
19
37
30
20
20
ENDCHAR
STARTCHAR 013e
ENCODING 4881
SWIDTH 360 0
DWIDTH 8 0
BBX 0 0 0 0
BITMAP
ENDCHAR
STARTCHAR a2d5
ENCODING 4882
SWIDTH 360 0
DWIDTH 8 0
BBX 8 11 0 -1
BITMAP
FC
CC
CC
0C
18
1A
1E
32
33
30
30
ENDCHAR
STARTCHAR a2d6
ENCODING 4883
SWIDTH 360 0
DWIDTH 8 0
BBX 8 11 0 -1
BITMAP
FC
C6
C6
06
1E
71
03
03
03
03
03
ENDCHAR
STARTCHAR a2d7
ENCODING 4884
SWIDTH 360 0
DWIDTH 8 0
BBX 8 11 0 -1
BITMAP
F8
CC
CC
0C
0C
1C
1B
19
1F
60
60
ENDCHAR
STARTCHAR a2d8
ENCODING 4885
SWIDTH 360 0
DWIDTH 8 0
BBX 8 11 0 -1
BITMAP
FC
CC
CC
0C
18
1A
1E
33
30
10
10
ENDCHAR
STARTCHAR 013e
ENCODING 4886
SWIDTH 360 0
DWIDTH 8 0
BBX 0 0 0 0
BITMAP
ENDCHAR
STARTCHAR 013e
ENCODING 4887
SWIDTH 360 0
DWIDTH 8 0
BBX 0 0 0 0
BITMAP
ENDCHAR
STARTCHAR a3ad
ENCODING 4888
SWIDTH 360 0
DWIDTH 8 0
BBX 8 11 0 -1
BITMAP
FF
E3
E3
03
06
06
06
0C
0C
0C
0C
ENDCHAR
STARTCHAR a3ae
ENCODING 4889
SWIDTH 360 0
DWIDTH 8 0
BBX 8 11 0 -1
BITMAP
FE
C6
C6
06
0C
0C
0F
18
18
18
18
ENDCHAR
STARTCHAR a3af
ENCODING 4890
SWIDTH 360 0
DWIDTH 8 0
BBX 7 11 1 -1
BITMAP
FE
C6
C6
06
0C
0C
0C
18
18
1E
1E
ENDCHAR
STARTCHAR a3b0
ENCODING 4891
SWIDTH 360 0
DWIDTH 8 0
BBX 7 10 1 -1
BITMAP
FC
FC
C6
06
06
0C
18
70
60
60
ENDCHAR
STARTCHAR a3b1
ENCODING 4892
SWIDTH 360 0
DWIDTH 8 0
BBX 7 11 1 -1
BITMAP
FE
C6
C6
06
0C
0C
0C
1E
1A
1E
1E
ENDCHAR
STARTCHAR a3b2
ENCODING 4893
SWIDTH 360 0
DWIDTH 8 0
BBX 7 11 1 -1
BITMAP
FE
A6
A6
E6
0C
0C
0C
1C
18
18
18
ENDCHAR
STARTCHAR a3b3
ENCODING 4894
SWIDTH 360 0
DWIDTH 8 0
BBX 8 11 0 -1
BITMAP
18
18
18
FF
E3
03
06
06
0C
0C
0C
ENDCHAR
STARTCHAR 013e
ENCODING 4895
SWIDTH 360 0
DWIDTH 8 0
BBX 0 0 0 0
BITMAP
ENDCHAR
STARTCHAR a3b5
ENCODING 4896
SWIDTH 360 0
DWIDTH 8 0
BBX 8 8 0 1
BITMAP
7E
7E
DB
DB
DB
DB
DB
DB
ENDCHAR
STARTCHAR a3b6
ENCODING 4897
SWIDTH 360 0
DWIDTH 8 0
BBX 8 8 0 1
BITMAP
7C
7C
D6
D7
D7
D6
D6
D6
ENDCHAR
STARTCHAR a3b7
ENCODING 4898
SWIDTH 360 0
DWIDTH 8 0
BBX 8 8 0 1
BITMAP
7C
7C
D6
D6
D6
D6
D7
D7
ENDCHAR
STARTCHAR a3b8
ENCODING 4899
SWIDTH 360 0
DWIDTH 8 0
BBX 8 8 0 -1
BITMAP
7E
DB
DB
DB
DB
03
03
03
ENDCHAR
STARTCHAR a3b9
ENCODING 4900
SWIDTH 360 0
DWIDTH 8 0
BBX 8 8 0 -1
BITMAP
FC
B4
B4
B4
B7
B5
B7
B7
ENDCHAR
STARTCHAR a3ba
ENCODING 4901
SWIDTH 360 0
DWIDTH 8 0
BBX 8 9 0 1
BITMAP
7E
DB
DB
DB
18
1C
0C
0C
18
ENDCHAR
STARTCHAR a3bb
ENCODING 4902
SWIDTH 360 0
DWIDTH 8 0
BBX 8 8 0 1
BITMAP
7E
7E
DB
DB
DB
C0
C0
C0
ENDCHAR
STARTCHAR a3bc
ENCODING 4903
SWIDTH 360 0
DWIDTH 8 0
BBX 8 10 0 -1
BITMAP
FC
FC
B4
B4
B4
B4
B4
04
1B
1B
ENDCHAR
STARTCHAR a3bd
ENCODING 4904
SWIDTH 360 0
DWIDTH 8 0
BBX 8 8 0 1
BITMAP
7E
7E
92
92
92
92
DB
DB
ENDCHAR
STARTCHAR a3be
ENCODING 4905
SWIDTH 360 0
DWIDTH 8 0
BBX 8 8 0 1
BITMAP
7E
7E
92
93
93
92
DB
DB
ENDCHAR
STARTCHAR a3bf
ENCODING 4906
SWIDTH 360 0
DWIDTH 8 0
BBX 8 8 0 1
BITMAP
7E
7E
92
92
92
92
DA
DB
ENDCHAR
STARTCHAR a3c0
ENCODING 4907
SWIDTH 360 0
DWIDTH 8 0
BBX 8 8 0 1
BITMAP
7E
7E
92
92
DA
DA
03
03
ENDCHAR
STARTCHAR a3c1
ENCODING 4908
SWIDTH 360 0
DWIDTH 8 0
BBX 8 8 0 1
BITMAP
7E
7E
92
92
92
92
DB
DB
ENDCHAR
STARTCHAR a3c2
ENCODING 4909
SWIDTH 360 0
DWIDTH 8 0
BBX 8 9 0 1
BITMAP
7C
D7
D7
D7
18
18
0E
0A
0E
ENDCHAR
STARTCHAR a3c3
ENCODING 4910
SWIDTH 360 0
DWIDTH 8 0
BBX 8 8 0 1
BITMAP
7E
7E
92
9B
9B
80
C0
C0
ENDCHAR
STARTCHAR a3c4
ENCODING 4911
SWIDTH 360 0
DWIDTH 8 0
BBX 8 10 0 -1
BITMAP
7E
7E
92
92
92
DB
DB
02
05
05
ENDCHAR
STARTCHAR a3c5
ENCODING 4912
SWIDTH 360 0
DWIDTH 8 0
BBX 6 11 0 -1
BITMAP
30
30
30
78
84
78
30
78
CC
CC
CC
ENDCHAR
STARTCHAR a3c6
ENCODING 4913
SWIDTH 360 0
DWIDTH 8 0
BBX 8 11 0 -1
BITMAP
30
30
30
78
84
78
30
78
CF
CC
CC
ENDCHAR
STARTCHAR a3c7
ENCODING 4914
SWIDTH 360 0
DWIDTH 8 0
BBX 7 11 1 -1
BITMAP
30
30
30
78
84
78
30
78
CC
CE
CE
ENDCHAR
STARTCHAR a3c8
ENCODING 4915
SWIDTH 360 0
DWIDTH 8 0
BBX 6 11 1 -1
BITMAP
30
30
30
78
84
78
30
78
CC
0C
0C
ENDCHAR
STARTCHAR a3c9
ENCODING 4916
SWIDTH 360 0
DWIDTH 8 0
BBX 8 11 0 -1
BITMAP
30
30
30
78
84
78
30
78
CF
CF
CF
ENDCHAR
STARTCHAR a3ca
ENCODING 4917
SWIDTH 360 0
DWIDTH 8 0
BBX 8 11 0 -1
BITMAP
30
30
30
78
87
7B
30
78
CC
CC
CC
ENDCHAR
STARTCHAR a3cb
ENCODING 4918
SWIDTH 360 0
DWIDTH 8 0
BBX 6 11 0 -1
BITMAP
30
30
30
78
84
78
30
78
CC
C0
C0
ENDCHAR
STARTCHAR a3cc
ENCODING 4919
SWIDTH 360 0
DWIDTH 8 0
BBX 2 2 1 4
BITMAP
C0
C0
ENDCHAR
STARTCHAR a3cd
ENCODING 4920
SWIDTH 360 0
DWIDTH 8 0
BBX 6 10 0 -1
BITMAP
78
78
84
84
78
30
78
CC
CC
CC
ENDCHAR
STARTCHAR a3ce
ENCODING 4921
SWIDTH 360 0
DWIDTH 8 0
BBX 8 10 0 -1
BITMAP
78
78
84
84
78
30
78
CF
CC
CC
ENDCHAR
STARTCHAR a3cf
ENCODING 4922
SWIDTH 360 0
DWIDTH 8 0
BBX 8 11 0 -2
BITMAP
78
78
84
84
78
30
78
CC
CF
CF
01
ENDCHAR
STARTCHAR a3d0
ENCODING 4923
SWIDTH 360 0
DWIDTH 8 0
BBX 6 10 0 -1
BITMAP
78
78
84
84
78
30
78
CC
0C
0C
ENDCHAR
STARTCHAR a3d1
ENCODING 4924
SWIDTH 360 0
DWIDTH 8 0
BBX 8 10 0 -1
BITMAP
78
78
84
84
78
30
78
CB
CF
CF
ENDCHAR
STARTCHAR a3d2
ENCODING 4925
SWIDTH 360 0
DWIDTH 8 0
BBX 8 10 0 -1
BITMAP
78
78
84
87
78
30
78
CC
CC
CC
ENDCHAR
STARTCHAR a3d3
ENCODING 4926
SWIDTH 360 0
DWIDTH 8 0
BBX 6 10 0 -1
BITMAP
78
78
84
84
78
30
78
CC
C0
C0
ENDCHAR
STARTCHAR a3d4
ENCODING 4927
SWIDTH 360 0
DWIDTH 8 0
BBX 8 11 0 -1
BITMAP
7C
86
86
FC
40
30
30
FC
C4
1B
1B
ENDCHAR
STARTCHAR a3d5
ENCODING 4928
SWIDTH 360 0
DWIDTH 8 0
BBX 8 11 0 -1
BITMAP
7E
C3
C3
C3
C3
FF
C3
C3
C3
7E
7E
ENDCHAR
STARTCHAR a3d6
ENCODING 4929
SWIDTH 360 0
DWIDTH 8 0
BBX 8 11 0 -1
BITMAP
78
CC
CC
CC
CC
FF
CC
CC
CC
78
78
ENDCHAR
STARTCHAR a3d7
ENCODING 4930
SWIDTH 360 0
DWIDTH 8 0
BBX 8 11 0 -1
BITMAP
7E
C3
C3
FF
C3
7E
06
0C
18
1F
1F
ENDCHAR
STARTCHAR a3d8
ENCODING 4931
SWIDTH 360 0
DWIDTH 8 0
BBX 8 11 0 -1
BITMAP
7E
C3
C3
FF
C3
7F
03
07
06
06
06
ENDCHAR
STARTCHAR a3d9
ENCODING 4932
SWIDTH 360 0
DWIDTH 8 0
BBX 8 11 0 -1
BITMAP
7E
C3
C3
FF
C3
7E
06
0F
19
1F
1F
ENDCHAR
STARTCHAR a3da
ENCODING 4933
SWIDTH 360 0
DWIDTH 8 0
BBX 8 11 0 -1
BITMAP
18
18
18
7E
C3
C3
FF
C3
C3
7E
7E
ENDCHAR
STARTCHAR a3db
ENCODING 4934
SWIDTH 360 0
DWIDTH 8 0
BBX 8 11 0 -1
BITMAP
7E
C3
C3
FF
C3
7E
38
60
C0
C0
C0
ENDCHAR
STARTCHAR 013e
ENCODING 4935
SWIDTH 360 0
DWIDTH 8 0
BBX 0 0 0 0
BITMAP
ENDCHAR
STARTCHAR a3dd
ENCODING 4936
SWIDTH 360 0
DWIDTH 8 0
BBX 8 11 0 -1
BITMAP
06
06
06
06
0C
18
38
6C
CC
7F
7F
ENDCHAR
STARTCHAR a3de
ENCODING 4937
SWIDTH 360 0
DWIDTH 8 0
BBX 8 11 0 -1
BITMAP
06
0C
0C
18
30
7C
CC
7F
0C
0C
0C
ENDCHAR
STARTCHAR a3df
ENCODING 4938
SWIDTH 360 0
DWIDTH 8 0
BBX 7 11 0 -1
BITMAP
0C
0C
0C
0C
18
30
60
F6
B6
FC
FC
ENDCHAR
STARTCHAR a3e0
ENCODING 4939
SWIDTH 360 0
DWIDTH 8 0
BBX 8 11 0 -1
BITMAP
06
0C
0C
18
30
7C
CC
7F
0D
0C
0C
ENDCHAR
STARTCHAR a3e1
ENCODING 4940
SWIDTH 360 0
DWIDTH 8 0
BBX 8 11 0 -1
BITMAP
06
06
06
0C
18
30
70
DF
7D
07
07
ENDCHAR
STARTCHAR a3e2
ENCODING 4941
SWIDTH 360 0
DWIDTH 8 0
BBX 8 11 0 -1
BITMAP
7F
C0
C0
C0
F0
D8
7F
18
18
18
18
ENDCHAR
STARTCHAR a3e3
ENCODING 4942
SWIDTH 360 0
DWIDTH 8 0
BBX 8 9 0 1
BITMAP
7F
C5
C5
C7
C0
F8
D8
DB
7F
ENDCHAR
STARTCHAR a3e4
ENCODING 4943
SWIDTH 360 0
DWIDTH 8 0
BBX 8 11 0 -1
BITMAP
0C
18
18
30
7C
CC
7F
0D
0C
33
33
ENDCHAR
STARTCHAR a3e6
ENCODING 4944
SWIDTH 360 0
DWIDTH 8 0
BBX 8 11 0 -1
BITMAP
FF
99
99
18
18
18
18
18
18
18
18
ENDCHAR
STARTCHAR a3e7
ENCODING 4945
SWIDTH 360 0
DWIDTH 8 0
BBX 8 11 0 -1
BITMAP
FF
99
99
18
18
18
18
1A
1E
1A
1A
ENDCHAR
STARTCHAR a3e8
ENCODING 4946
SWIDTH 360 0
DWIDTH 8 0
BBX 8 11 0 -1
BITMAP
FF
99
99
18
18
18
18
18
1A
1E
1E
ENDCHAR
STARTCHAR a3e9
ENCODING 4947
SWIDTH 360 0
DWIDTH 8 0
BBX 8 11 0 -1
BITMAP
FF
99
99
18
18
18
18
30
B0
E0
E0
ENDCHAR
STARTCHAR a3ea
ENCODING 4948
SWIDTH 360 0
DWIDTH 8 0
BBX 8 11 0 -1
BITMAP
FF
99
99
18
18
18
18
1E
1A
1E
1E
ENDCHAR
STARTCHAR a3eb
ENCODING 4949
SWIDTH 360 0
DWIDTH 8 0
BBX 7 11 0 -1
BITMAP
FE
B2
B2
30
38
18
18
18
18
18
18
ENDCHAR
STARTCHAR a3ec
ENCODING 4950
SWIDTH 360 0
DWIDTH 8 0
BBX 8 11 0 -1
BITMAP
FF
99
99
18
30
30
60
60
C0
C0
C0
ENDCHAR
STARTCHAR a3e6
ENCODING 4951
SWIDTH 360 0
DWIDTH 8 0
BBX 8 13 0 -2
BITMAP
FF
99
99
18
18
18
18
18
18
18
18
66
66
ENDCHAR
STARTCHAR a3cc
ENCODING 4952
SWIDTH 360 0
DWIDTH 8 0
BBX 2 2 1 4
BITMAP
C0
C0
ENDCHAR
STARTCHAR a3cc
ENCODING 4953
SWIDTH 360 0
DWIDTH 8 0
BBX 2 2 1 4
BITMAP
C0
C0
ENDCHAR
STARTCHAR a3cc
ENCODING 4954
SWIDTH 360 0
DWIDTH 8 0
BBX 2 2 1 4
BITMAP
C0
C0
ENDCHAR
STARTCHAR 013e
ENCODING 4955
SWIDTH 360 0
DWIDTH 8 0
BBX 0 0 0 0
BITMAP
ENDCHAR
STARTCHAR 013e
ENCODING 4956
SWIDTH 360 0
DWIDTH 8 0
BBX 0 0 0 0
BITMAP
ENDCHAR
STARTCHAR 013e
ENCODING 4957
SWIDTH 360 0
DWIDTH 8 0
BBX 0 0 0 0
BITMAP
ENDCHAR
STARTCHAR 013e
ENCODING 4958
SWIDTH 360 0
DWIDTH 8 0
BBX 0 0 0 0
BITMAP
ENDCHAR
STARTCHAR 013e
ENCODING 4959
SWIDTH 360 0
DWIDTH 8 0
BBX 0 0 0 0
BITMAP
ENDCHAR
STARTCHAR 013e
ENCODING 4960
SWIDTH 360 0
DWIDTH 8 0
BBX 0 0 0 0
BITMAP
ENDCHAR
STARTCHAR 013f
ENCODING 4961
SWIDTH 360 0
DWIDTH 8 0
BBX 2 5 3 4
BITMAP
C0
C0
00
C0
C0
ENDCHAR
STARTCHAR 0140
ENCODING 4962
SWIDTH 360 0
DWIDTH 8 0
BBX 5 5 1 4
BITMAP
D8
D8
00
D8
D8
ENDCHAR
STARTCHAR 0141
ENCODING 4963
SWIDTH 360 0
DWIDTH 8 0
BBX 6 8 1 4
BITMAP
0C
FC
C0
30
30
00
30
30
ENDCHAR
STARTCHAR 0142
ENCODING 4964
SWIDTH 360 0
DWIDTH 8 0
BBX 6 11 1 1
BITMAP
0C
FC
C0
30
30
00
30
30
0C
FC
C0
ENDCHAR
STARTCHAR 0143
ENCODING 4965
SWIDTH 360 0
DWIDTH 8 0
BBX 6 7 1 4
BITMAP
30
30
0C
FC
C0
30
30
ENDCHAR
STARTCHAR 0144
ENCODING 4966
SWIDTH 360 0
DWIDTH 8 0
BBX 5 7 3 4
BITMAP
C0
C0
00
78
00
C0
C0
ENDCHAR
STARTCHAR 0145
ENCODING 4967
SWIDTH 360 0
DWIDTH 8 0
BBX 2 8 3 4
BITMAP
C0
C0
00
C0
C0
00
C0
C0
ENDCHAR
STARTCHAR 0146
ENCODING 4968
SWIDTH 360 0
DWIDTH 8 0
BBX 8 9 0 4
BITMAP
18
18
C3
DB
18
DB
C3
18
18
ENDCHAR
STARTCHAR 0147
ENCODING 4969
SWIDTH 360 0
DWIDTH 8 0
BBX 7 13 0 1
BITMAP
FE
C6
00
30
30
70
E8
CC
CC
78
00
FE
C6
ENDCHAR
STARTCHAR 0148
ENCODING 4970
SWIDTH 360 0
DWIDTH 8 0
BBX 8 13 0 1
BITMAP
FF
C3
3C
76
E6
FC
E0
7C
76
3C
00
FF
C3
ENDCHAR
STARTCHAR 0149
ENCODING 4971
SWIDTH 360 0
DWIDTH 8 0
BBX 7 13 0 1
BITMAP
FE
C6
00
7C
6C
60
60
60
60
70
00
FE
86
ENDCHAR
STARTCHAR 014a
ENCODING 4972
SWIDTH 360 0
DWIDTH 8 0
BBX 7 13 0 1
BITMAP
FE
C6
38
6C
6C
6C
6C
6C
6C
38
00
FE
C6
ENDCHAR
STARTCHAR 014b
ENCODING 4973
SWIDTH 360 0
DWIDTH 8 0
BBX 8 13 0 1
BITMAP
FF
C3
18
18
30
7E
C6
C0
CC
7E
00
FF
C3
ENDCHAR
STARTCHAR 014c
ENCODING 4974
SWIDTH 360 0
DWIDTH 8 0
BBX 8 13 0 1
BITMAP
FF
C3
00
7C
6C
0C
18
1E
32
3E
00
FF
C3
ENDCHAR
STARTCHAR 014d
ENCODING 4975
SWIDTH 360 0
DWIDTH 8 0
BBX 8 13 0 1
BITMAP
FF
C3
00
7C
6C
0C
18
18
36
3E
00
FF
C3
ENDCHAR
STARTCHAR 014e
ENCODING 4976
SWIDTH 360 0
DWIDTH 8 0
BBX 8 13 0 1
BITMAP
FF
C3
00
FF
DB
18
18
18
FF
C3
00
FF
C3
ENDCHAR
STARTCHAR 014f
ENCODING 4977
SWIDTH 360 0
DWIDTH 8 0
BBX 8 13 0 1
BITMAP
FF
C3
00
66
66
7E
66
66
64
38
00
FF
C3
ENDCHAR
STARTCHAR 0150
ENCODING 4978
SWIDTH 360 0
DWIDTH 8 0
BBX 6 13 1 1
BITMAP
FC
CC
00
30
30
30
30
30
30
30
00
FC
CC
ENDCHAR
STARTCHAR 0151
ENCODING 4979
SWIDTH 360 0
DWIDTH 8 0
BBX 8 13 0 1
BITMAP
FF
C3
00
7E
5A
30
3C
66
66
66
00
FF
C3
ENDCHAR
STARTCHAR 0152
ENCODING 4980
SWIDTH 360 0
DWIDTH 8 0
BBX 8 13 0 1
BITMAP
FF
C3
00
6E
DB
DB
DB
DB
DB
73
00
FF
C3
ENDCHAR
STARTCHAR 0153
ENCODING 4981
SWIDTH 360 0
DWIDTH 8 0
BBX 8 13 0 1
BITMAP
FF
C3
00
DB
DB
DF
DB
73
03
03
00
FF
C3
ENDCHAR
STARTCHAR 0154
ENCODING 4982
SWIDTH 360 0
DWIDTH 8 0
BBX 8 13 0 1
BITMAP
FF
C3
00
66
66
66
3C
0C
0C
0C
00
FF
C3
ENDCHAR
STARTCHAR 0155
ENCODING 4983
SWIDTH 360 0
DWIDTH 8 0
BBX 8 13 0 1
BITMAP
FF
C3
00
FF
DB
1C
0C
0C
7F
63
00
FF
C3
ENDCHAR
STARTCHAR 0156
ENCODING 4984
SWIDTH 360 0
DWIDTH 8 0
BBX 8 13 0 1
BITMAP
FF
C3
00
3E
65
C5
C7
C0
C0
7E
06
FF
C3
ENDCHAR
STARTCHAR 0157
ENCODING 4985
SWIDTH 360 0
DWIDTH 8 0
BBX 7 13 0 1
BITMAP
FE
C6
00
FE
EE
6C
6C
6C
6C
6C
00
FE
C6
ENDCHAR
STARTCHAR 0158
ENCODING 4986
SWIDTH 360 0
DWIDTH 8 0
BBX 8 13 0 1
BITMAP
FF
C3
78
6C
08
1C
06
0C
18
18
00
FF
C3
ENDCHAR
STARTCHAR 0159
ENCODING 4987
SWIDTH 360 0
DWIDTH 8 0
BBX 8 13 0 1
BITMAP
FF
C3
3C
66
66
2C
30
30
30
30
00
FF
C3
ENDCHAR
STARTCHAR 015a
ENCODING 4988
SWIDTH 360 0
DWIDTH 8 0
BBX 8 13 0 1
BITMAP
FF
C3
66
99
99
AA
CC
CC
CC
CC
00
FF
C3
ENDCHAR
STARTCHAR 013e
ENCODING 4989
SWIDTH 360 0
DWIDTH 8 0
BBX 0 0 0 0
BITMAP
ENDCHAR
STARTCHAR 013e
ENCODING 4990
SWIDTH 360 0
DWIDTH 8 0
BBX 0 0 0 0
BITMAP
ENDCHAR
STARTCHAR 013e
ENCODING 4991
SWIDTH 360 0
DWIDTH 8 0
BBX 0 0 0 0
BITMAP
ENDCHAR
STARTCHAR 015c
ENCODING 4992
SWIDTH 360 0
DWIDTH 8 0
BBX 4 10 2 2
BITMAP
60
60
00
60
60
60
F0
F0
F0
60
ENDCHAR
STARTCHAR 015d
ENCODING 4993
SWIDTH 360 0
DWIDTH 8 0
BBX 2 2 3 3
BITMAP
C0
C0
ENDCHAR
STARTCHAR 015e
ENCODING 4994
SWIDTH 360 0
DWIDTH 8 0
BBX 8 7 0 4
BITMAP
1B
36
6C
D8
6C
36
1B
ENDCHAR
STARTCHAR 015f
ENCODING 4995
SWIDTH 360 0
DWIDTH 8 0
BBX 8 7 0 4
BITMAP
D8
6C
36
1B
36
6C
D8
ENDCHAR
STARTCHAR 0160
ENCODING 4996
SWIDTH 360 0
DWIDTH 8 0
BBX 7 10 1 2
BITMAP
7C
C6
C6
0C
18
30
30
00
30
30
ENDCHAR
ENDFONT
